squats_1_grf
version=1
nRows=18
nColumns=19
inDegrees=no
endheader
time	ground_force_right_vx	ground_force_right_vy	ground_force_right_vz	ground_force_right_px	ground_force_right_py	ground_force_right_pz	ground_force_right_mx	ground_force_right_my	ground_force_right_mz	ground_force_left_vx	ground_force_left_vy	ground_force_left_vz	ground_force_left_px	ground_force_left_py	ground_force_left_pz	ground_force_left_mx	ground_force_left_my	ground_force_left_mz
     22.12700000	      0.52006408	    370.15697662	     34.32197971	     -3.44340339	      0.00728794	      2.32103813	     -0.00752467	      2.58152413	      0.01168850	      5.28730685	    311.95994485	    -28.24177428	     -3.45492228	      0.00801051	      2.67667911	      0.01298537	     -3.90830687	      0.00678669
     22.12800000	      0.56563281	    370.02529278	     34.32699769	     -3.44333563	      0.00728811	      2.32104562	     -0.00750064	      2.57327976	      0.01165117	      5.31675004	    311.74106905	    -28.21716051	     -3.45484175	      0.00801076	      2.67666761	      0.01296362	     -3.90175888	      0.00677532
     22.12900000	      0.60695522	    369.90594873	     34.33514207	     -3.44326503	      0.00728828	      2.32105363	     -0.00747698	      2.56516159	      0.01161441	      5.34056898	    311.53085085	    -28.19221784	     -3.45475977	      0.00801101	      2.67665667	      0.01294178	     -3.89518524	      0.00676390
     22.13000000	      0.64398840	    369.79928962	     34.34666449	     -3.44319146	      0.00728845	      2.32106221	     -0.00745363	      2.55715055	      0.01157814	      5.35878231	    311.32941454	    -28.16736439	     -3.45467638	      0.00801127	      2.67664639	      0.01291981	     -3.88857561	      0.00675243
     22.13100000	      0.67672299	    369.70553229	     34.36178635	     -3.44311478	      0.00728863	      2.32107139	     -0.00743054	      2.54922778	      0.01154227	      5.37147826	    311.13676794	    -28.14302459	     -3.45459162	      0.00801154	      2.67663690	      0.01289770	     -3.88191924	      0.00674087
     22.13200000	      0.70518184	    369.62476195	     34.38069660	     -3.44303490	      0.00728882	      2.32108119	     -0.00740765	      2.54137492	      0.01150671	      5.37881324	    310.95279944	    -28.11962243	     -3.45450556	      0.00801181	      2.67662832	      0.01287539	     -3.87520525	      0.00672921
     22.13300000	      0.72941824	    369.55693035	     34.40354988	     -3.44295173	      0.00728902	      2.32109165	     -0.00738491	      2.53357434	      0.01147139	      5.38100966	    310.77727622	    -28.09757465	     -3.45441827	      0.00801209	      2.67662075	      0.01285286	     -3.86842292	      0.00671743
     22.13400000	      0.74951380	    369.50185509	     34.43046494	     -3.44286522	      0.00728922	      2.32110278	     -0.00736228	      2.52580937	      0.01143624	      5.37835300	    310.60984393	    -28.07728414	     -3.45432983	      0.00801237	      2.67661431	      0.01283006	     -3.86156194	      0.00670552
     22.13500000	      0.76557595	    369.45922044	     34.46152360	     -3.44277531	      0.00728943	      2.32111460	     -0.00733970	      2.51806459	      0.01140117	      5.37118798	    310.45002772	    -28.05913357	     -3.45424035	      0.00801266	      2.67660909	      0.01280697	     -3.85461272	      0.00669345
     22.13600000	      0.77773525	    369.42857934	     34.49676998	     -3.44268201	      0.00728964	      2.32112714	     -0.00731714	      2.51032593	      0.01136613	      5.35991417	    310.29723449	    -28.04347932	     -3.45414992	      0.00801295	      2.67660517	      0.01278356	     -3.84756655	      0.00668122
     22.13700000	      0.78614239	    369.40935684	     34.53621019	     -3.44258530	      0.00728987	      2.32114039	     -0.00729457	      2.50258097	      0.01133106	      5.34498065	    310.15075661	    -28.03064592	     -3.45405868	      0.00801325	      2.67660264	      0.01275980	     -3.84041583	      0.00666880
     22.13800000	      0.79096517	    369.40085472	     34.57981246	     -3.44248523	      0.00729009	      2.32115437	     -0.00727194	      2.49481903	      0.01129592	      5.32688019	    310.00977671	    -28.02092091	     -3.45396673	      0.00801355	      2.67660154	      0.01273568	     -3.83315423	      0.00665619
     22.13900000	      0.79238538	    369.40225755	     34.62750767	     -3.44238185	      0.00729033	      2.32116909	     -0.00724924	      2.48703137	      0.01126066	      5.30614256	    309.87337388	    -28.01455041	     -3.45387421	      0.00801386	      2.67660193	      0.01271117	     -3.82577679	      0.00664338
     22.14000000	      0.79059574	    369.41263984	     34.67919033	     -3.44227523	      0.00729057	      2.32118453	     -0.00722645	      2.47921129	      0.01122525	      5.28332739	    309.74053091	    -28.01173524	     -3.45378123	      0.00801417	      2.67660383	      0.01268626	     -3.81828001	      0.00663036
     22.14100000	      0.78579693	    369.43097446	     34.73471989	     -3.44216546	      0.00729082	      2.32120070	     -0.00720355	      2.47135427	      0.01118968	      5.25901641	    309.61014270	    -28.01262793	     -3.45368794	      0.00801449	      2.67660725	      0.01266095	     -3.81066190	      0.00661713
     22.14200000	      0.77819478	    369.45614205	     34.79392261	     -3.44205267	      0.00729107	      2.32121759	     -0.00718053	      2.46345799	      0.01115392	      5.23380517	    309.48102564	    -28.01733037	     -3.45359445	      0.00801481	      2.67661218	      0.01263523	     -3.80292198	      0.00660369
     22.14300000	      0.76799777	    369.48694140	     34.85659354	     -3.44193698	      0.00729133	      2.32123519	     -0.00715740	      2.45552239	      0.01111799	      5.20829453	    309.35192790	    -28.02589238	     -3.45350088	      0.00801513	      2.67661859	      0.01260911	     -3.79506119	      0.00659004
     22.14400000	      0.75541466	    369.52210070	     34.92249903	     -3.44181854	      0.00729159	      2.32125348	     -0.00713416	      2.44754968	      0.01108190	      5.18308177	    309.22154040	    -28.03831102	     -3.45340737	      0.00801545	      2.67662644	      0.01258260	     -3.78708186	      0.00657618
